<?xml version="1.0" encoding="utf-8"?>
<!-- Generator: Adobe Illustrator 16.0.0, SVG Export Plug-In . SVG Version: 6.00 Build 0)  -->
<!DOCTYPE svg PUBLIC "-//W3C//DTD SVG 1.1//EN" "http://www.w3.org/Graphics/SVG/1.1/DTD/svg11.dtd">
<svg version="1.1" id="Camada_1" xmlns="http://www.w3.org/2000/svg" xmlns:xlink="http://www.w3.org/1999/xlink" x="0px" y="0px"
	 width="96px" height="20px" viewBox="0 0 96 20" enable-background="new 0 0 96 20" xml:space="preserve">
<path fill="#FFFFFF" d="M0,19.723V0h8.5c0.963,0,1.852,0.195,2.667,0.583c0.814,0.389,1.518,0.912,2.111,1.569
	c0.592,0.658,1.051,1.394,1.375,2.208S15.139,6,15.139,6.833c0,1.167-0.273,2.269-0.82,3.305c-0.546,1.037-1.305,1.885-2.277,2.543
	c-0.973,0.656-2.106,0.985-3.403,0.985H5.417v6.056H0z M5.417,8.945h2.861c0.222,0,0.435-0.065,0.639-0.195
	c0.204-0.129,0.375-0.352,0.514-0.667c0.139-0.314,0.208-0.731,0.208-1.25c0-0.556-0.079-0.986-0.236-1.292
	C9.246,5.236,9.051,5.023,8.819,4.903c-0.231-0.12-0.458-0.181-0.68-0.181H5.417V8.945z"/>
<path fill="#FFFFFF" d="M43.972,10.028v9.695h-5.417V0h4.222l7.917,10.028V0h5.416v19.723h-4.305L43.972,10.028z"/>
<path fill="#FFFFFF" d="M74.861,4.722h-5.666v15h-5.418v-15h-5.693V0h16.777V4.722z"/>
<path fill="#FFFFFF" d="M95.779,10c0,5.523-4.477,10-10,10s-10-4.477-10-10c0-5.523,4.477-10,10-10S95.779,4.477,95.779,10z
	 M85.779,5c-2.762,0-5,2.239-5,5c0,2.762,2.238,5,5,5s5-2.238,5-5C90.779,7.239,88.541,5,85.779,5z"/>
<circle fill="#FA3954" cx="26.779" cy="10" r="5"/>
</svg>
